<svg width="1920" height="1080" xmlns="http://www.w3.org/2000/svg" stroke="null">
 <g id="Слой_1">
  <title>Слой 1</title>
  <path d="m-329.76764,536.7439c6.97675,6.97675 27.81445,23.42889 58.13953,39.53491c48.69023,25.85999 108.29968,48.71387 172.09298,60.46509c62.13174,11.44513 142.70766,10.99579 206.97669,-4.65118c68.61087,-16.70404 142.08815,-50.69525 209.30228,-83.72089c70.008,-34.39844 137.41406,-71.74225 209.30225,-113.95346c74.63306,-43.82294 169.35889,-106.26123 286.04645,-153.48834c79.76135,-32.28192 152.28479,-58.10493 260.46509,-67.44183c71.82605,-6.1992 167.59399,20.58238 251.16272,65.11627c86.58887,46.14328 186.32336,122.88211 283.72083,195.34879c102.61877,76.35156 238.58838,187.87146 369.76733,265.11621c116.50562,68.60437 209.30225,97.67438 286.04639,123.2558l48.8374,11.62787l32.55811,6.97675l2.32544,2.32556" id="svg_63" stroke-width="50" stroke="#000" fill="none"/>
  <path d="m-262.32578,120.46495c2.32556,0 6.97673,2.32558 32.55812,11.6279c51.16278,18.60464 125.13049,43.97612 218.6046,62.7907c104.20214,20.97392 213.95491,32.62802 325.5813,30.23254c109.49954,-2.34984 244.99564,-31.7556 367.4418,-65.11626c140.55536,-38.29453 292.79535,-91.45591 423.25568,-130.23253c127.68835,-37.95272 260.08301,-71.60043 367.44177,-93.02323c101.99243,-20.35198 204.57251,-37.88277 281.39526,-46.51162c67.37805,-7.56801 123.25586,-9.30232 169.76746,-9.30232c39.53479,0 78.95557,5.12496 106.97668,11.6279c32.43542,7.52734 60.46521,13.95348 83.72083,18.60465l18.60474,4.65116l11.62793,2.32558" id="svg_64" stroke-width="50" stroke="#000" fill="none"/>
  <polyline stroke-linecap="round" id="svg_65" points="2267.9061391507903,739.0694480413719 2265.5805583361694,739.0694480413719 " stroke-width="50" stroke="#000" fill="none"/>
  <polyline stroke-linecap="round" id="svg_66" points="-97.20954931843757,1004.1856609081291 -94.88396850381696,1004.1856609081291 -87.90722605995484,1004.1856609081291 -71.62816035761011,1004.1856609081291 -48.37235221140338,1001.8600800935084 -15.814220806713934,994.8833376496463 33.02297630032024,983.255433576543 84.18575422197512,971.6275295034395 137.6741129582507,955.3484638010949 195.8136333237676,934.4182364695088 249.30199206004306,913.4880091379226 305.11593161093936,892.5577818063365 370.23219442031825,871.6275544747504 433.0228764150767,850.6973271431644 500.46472003907627,836.7438422554404 579.5344677361792,825.1159381823368 658.6042154332821,822.7903573677162 737.6739631303852,829.7670998115784 823.7204532713504,853.0229079577852 912.0925242269358,887.9066201770953 991.1622719240389,929.7670748402674 1084.185504508866,987.9065952057844 1177.208737093693,1055.3484388297838 1272.5575504931408,1125.1158632684042 1374.8831063364505,1194.8832877070245 1470.2319197358984,1255.348388887162 1567.9063139499667,1308.8367476234375 1872.5574006652755,1343.720459842748 1872.5574006652755,1334.418136584265 1872.5574006652755,1327.4413941404032 1872.5574006652755,1318.1390708819204 1872.5574006652755,1313.487909252679 1872.5574006652755,1308.8367476234375 1872.5574006652755,1304.1855859941961 1874.882981479896,1299.5344243649547 1877.2085622945165,1294.8832627357137 1879.5341431091374,1287.9065202918514 1881.8597239237579,1283.2553586626102 1886.5108855529993,1276.2786162187483 1891.1620471822407,1271.6274545895067 1893.4876279968612,1266.976292960265 1898.1387896261026,1259.9995505164031 1905.1155320699652,1255.348388887162 1909.766693699206,1248.3716464433 1919.0690169576885,1241.3949039994382 1928.3713402161718,1234.4181615555758 1944.6504059185163,1222.7902574824725 1960.929471620861,1211.1623534093692 1977.2085373232057,1199.5344493362659 1998.1387646547919,1185.5809644485416 2019.068991986378,1173.9530603754383 2037.6736385033435,1159.9995754877145 2058.6038658349294,1148.3716714146108 2074.882931537274,1139.0693481561284 2088.8364164249983,1129.7670248976456 2112.092224571205,1115.8135400099213 2137.6736135320325,1092.5577318637147 2163.2550024928596,1062.3251812736457 2195.813133897549,1018.1391457958531 2221.3945228583766,964.6507870595775 2242.3247501899627,899.5345242501986 2256.278235077687,822.7903573677162 2258.6038158923075,748.3717712998547 2258.6038158923075,662.3252811588897 2258.6038158923075,566.9764677594419 2253.952654263066,480.92997761847687 2251.6270734484456,411.16255317985656 2251.6270734484456,369.3020985166844 2253.952654263066,355.3486136289604 " opacity="NaN" stroke-width="50" stroke="#000" fill="none"/>
  <path d="m2253.95264,355.3486c2.32568,-6.97675 2.32568,-9.30231 4.65112,-9.30231l0,-2.32559" id="svg_67" stroke-width="50" stroke="#000" fill="none"/>
  <path d="m2007.44104,1064.65076c2.32568,-6.97668 5.43335,-16.93872 0,-34.88367c-7.53467,-24.88513 -30.28918,-62.58936 -67.44177,-100c-41.77966,-42.06989 -107.92322,-96.04596 -183.72095,-127.90698c-73.92505,-31.07385 -154.1864,-36.55829 -223.25574,-11.62787c-77.33801,27.91498 -136.20154,89.50726 -190.69763,151.16272c-52.45569,59.34698 -101.81042,124.55389 -130.23254,176.7442c-22.38342,41.10181 -32.55811,76.74414 -39.53479,95.34875l-2.32556,11.62793l0,9.30237" id="svg_68" stroke-width="50" stroke="#000" fill="none"/>
  <path d="m2314.41772,411.16257c-2314.41772,-411.16257 -2314.41772,-411.16257 -2314.41772,-411.16257l2314.41772,408.83698l-2.32544,-2.32559l0,-2.32556" id="svg_69" stroke-width="50" stroke="#000" fill="none"/>
  <path d="m1550.41724,-73.33327c0,2.08334 -1.65015,4.26033 0,18.75c3.14514,27.61662 14.03796,67.18779 47.91663,122.91669c44.15906,72.63981 100.3728,131.3595 175.00012,193.75004c53.7052,44.89908 120.37659,80.23386 187.5,108.33337c72.44226,30.32611 127.08325,43.75 175,52.08334l27.0835,4.16666l16.6665,0" id="svg_70" stroke-width="50" stroke="#000" fill="none"/>
  <polyline stroke-linecap="round" id="svg_71" points="2312.9174036396325,745.4169163715519 2312.9174036396325,747.5002501739959 " stroke-width="50" stroke="#000" fill="none"/>
  <path d="m-147.49982,43.33342c0,2.08334 1.44466,3.03918 4.16667,4.16667c7.69899,3.18901 23.09108,1.31918 43.75001,-2.08333c27.42565,-4.51698 62.60107,-16.20029 102.08335,-25.00001c35.51252,-7.91495 81.4141,-22.36546 131.25003,-37.50001c39.71896,-12.06215 77.29912,-24.33317 110.41669,-35.41668c29.36984,-9.82925 50.00003,-14.58334 66.66669,-16.66667l8.33334,-2.08333l2.08331,0" id="svg_72" stroke-width="50" stroke="#000" fill="none"/>
  <path d="m325.41696,1124.58362c4.16666,-2.08325 16.48169,-10.79736 33.33334,-18.75c18.55591,-8.75696 43.71457,-14.83923 72.91669,-18.75c33.2955,-4.45886 70.88489,-8.21558 108.33337,-6.25c39.74731,2.08618 74.79358,11.14624 110.41669,20.83337c41.44391,11.27002 74.66748,21.76978 114.58331,35.41663c39.27795,13.42883 76.87061,23.62366 110.41669,33.33337c31.06689,8.99207 54.26068,14.26746 68.75006,18.75c12.58759,3.89417 20.83331,6.25 27.08331,8.33337l4.16669,2.08337l2.08331,2.08325" id="svg_73" stroke-width="50" stroke="#000" fill="none"/>
  <path d="m1537.91724,1128.75037c2.08337,-2.08337 8.66016,-5.37439 20.83337,-10.41675c17.21545,-7.13086 33.33325,-16.66663 54.16663,-25c20.83337,-8.33325 43.78247,-14.1698 72.91675,-16.66663c20.86072,-1.78772 47.86096,-3.12439 77.08325,-4.16663c31.2301,-1.11389 58.39734,3.87524 87.50012,10.41663c35.49817,7.97876 66.66663,16.66663 95.83325,25c29.16675,8.33337 56.53027,13.05249 83.33337,18.75c23.23462,4.93896 41.95313,8.78455 58.33325,12.5c12.84961,2.91467 18.75,4.16663 25.00024,6.25l2.08325,0" id="svg_74" stroke-width="50" stroke="#000" fill="none"/>
 </g>
</svg>