<svg width="59.99999999999999" height="59.99999999999999" xmlns="http://www.w3.org/2000/svg">
 <g>
  <title>Слой 1</title>
  <g id="svg_19">
   <path fill="#56aaff" stroke="#56aaff" opacity="undefined" d="m11.71432,40.47604c-5.91948,0 -10.71426,-4.79478 -10.71426,-10.71426c0,-5.91948 4.79478,-10.71426 10.71426,-10.71426c5.91948,0 10.71426,4.79478 10.71426,10.71426c0,5.91948 -4.79478,10.71426 -10.71426,10.71426z" id="svg_5"/>
   <path fill="#56aaff" opacity="undefined" d="m44.99996,40.33318c-7.73479,0 -13.99997,-6.48894 -13.99997,-14.49996c0,-8.01104 6.26518,-14.49998 13.99997,-14.49998c7.7348,0 13.99998,6.48894 13.99998,14.49998c0,8.01103 -6.26518,14.49996 -13.99998,14.49996z" id="svg_9" stroke="#56aaff"/>
   <path fill="#56aaff" opacity="undefined" d="m27,40.33318c-10.41829,0 -18.85709,-8.21505 -18.85709,-18.35709c0,-10.14206 8.4388,-18.35712 18.85709,-18.35712c10.4183,0 18.85712,8.21506 18.85712,18.35712c0,10.14204 -8.43881,18.35709 -18.85712,18.35709z" id="svg_10" stroke="#56aaff"/>
   <line transform="rotate(1.80275 28.5714 35.9046)" fill="#56aaff" x1="11.1429" y1="36.47605" x2="45.99996" y2="35.3332" id="svg_11" stroke-width="10" stroke="#56aaff"/>
   <path fill="#56aaff" opacity="undefined" d="m44.99996,40.33319c-7.73479,0 -13.99997,-6.48894 -13.99997,-14.49997c0,-8.01104 6.26518,-14.49997 13.99997,-14.49997c7.7348,0 13.99998,6.48893 13.99998,14.49997c0,8.01103 -6.26518,14.49997 -13.99998,14.49997z" id="svg_12" stroke="#56aaff"/>
  </g>
  <line stroke-dasharray="5,5" stroke-width="3" stroke-linecap="undefined" stroke-linejoin="undefined" id="svg_1" y2="43.45067" x2="17.50003" y1="54.6686" x1="7.56415" stroke="#56aaff" fill="none"/>
  <line stroke-dasharray="5,5" stroke-width="3" stroke-linecap="undefined" stroke-linejoin="undefined" id="svg_2" y2="43.77119" x2="29.35897" y1="54.98911" x1="19.4231" stroke="#56aaff" fill="none"/>
  <path id="svg_3" d="m32.24358,54.98911l9.93587,-11.21792" opacity="undefined" stroke-linecap="undefined" stroke-linejoin="undefined" stroke-dasharray="5,5" stroke-width="3" stroke="#56aaff" fill="none"/>
 </g>

</svg>