<svg width="60" height="60" xmlns="http://www.w3.org/2000/svg">
 <g>
  <title>Слой 1</title>
  <g stroke="null" id="svg_31">
   <path stroke="#4c4c4c" fill="#4c4c4c" opacity="undefined" d="m23.83823,39.64753c-4.17554,0 -7.55772,-3.5065 -7.55772,-7.8355c0,-4.329 3.38218,-7.8355 7.55772,-7.8355c4.17554,0 7.55772,3.5065 7.55772,7.8355c0,4.329 -3.38218,7.8355 -7.55772,7.8355z" id="svg_27"/>
   <path stroke="#4c4c4c" fill="#4c4c4c" opacity="undefined" d="m47.31754,39.54306c-5.45603,0 -9.87542,-4.74546 -9.87542,-10.60404c0,-5.85859 4.41939,-10.60405 9.87542,-10.60405c5.45604,0 9.87542,4.74546 9.87542,10.60405c0,5.85859 -4.41938,10.60404 -9.87542,10.60404z" id="svg_28"/>
   <path stroke="#4c4c4c" fill="#4c4c4c" opacity="undefined" d="m34.62057,39.54305c-7.34894,0 -13.30158,-6.00779 -13.30158,-13.42481c0,-7.41705 5.95264,-13.42485 13.30158,-13.42485c7.34895,0 13.3016,6.0078 13.3016,13.42485c0,7.41702 -5.95264,13.42481 -13.3016,13.42481z" id="svg_29"/>
   <line stroke="#4c4c4c" fill="#4c4c4c" x1="23.42856" y1="36.32111" x2="48.02952" y2="36.28766" id="svg_30" stroke-width="10"/>
  </g>
  <g stroke="null" id="svg_26">
   <path stroke="#666666" fill="#666666" opacity="undefined" d="m10.22013,44.89026c-5.12678,0 -9.27947,-4.11275 -9.27947,-9.19021c0,-5.07746 4.15269,-9.19021 9.27947,-9.19021c5.12678,0 9.27947,4.11275 9.27947,9.19021c0,5.07746 -4.15269,9.19021 -9.27947,9.19021z" id="svg_22"/>
   <path stroke="#666666" fill="#666666" opacity="undefined" d="m39.04835,44.76773c-6.69899,0 -12.12517,-5.56592 -12.12517,-12.43741c0,-6.87151 5.42618,-12.43743 12.12517,-12.43743c6.699,0 12.12518,5.56592 12.12518,12.43743c0,6.8715 -5.42618,12.43741 -12.12518,12.43741z" id="svg_23"/>
   <path stroke="#666666" fill="#666666" opacity="undefined" d="m23.45884,44.76772c-9.02313,0 -16.33186,-7.0465 -16.33186,-15.74589c0,-8.6994 7.30872,-15.74591 16.33186,-15.74591c9.02314,0 16.33188,7.04651 16.33188,15.74591c0,8.69939 -7.30873,15.74589 -16.33188,15.74589z" id="svg_24"/>
   <line stroke="#666666" fill="#666666" x1="9.71713" y1="40.98873" x2="39.92253" y2="40.9495" id="svg_25" stroke-width="10"/>
  </g>
  <g stroke="null" id="svg_1">
   <path stroke="#7f7f7f" fill="#7f7f7f" opacity="undefined" d="m12.43162,54.21068c-5.91948,0 -10.71426,-4.79478 -10.71426,-10.71426c0,-5.91948 4.79478,-10.71426 10.71426,-10.71426c5.91948,0 10.71426,4.79478 10.71426,10.71426c0,5.91948 -4.79478,10.71426 -10.71426,10.71426z" id="svg_5"/>
   <path stroke="#7f7f7f" fill="#7f7f7f" opacity="undefined" d="m45.71726,54.06783c-7.73479,0 -13.99997,-6.48894 -13.99997,-14.49996c0,-8.01104 6.26518,-14.49998 13.99997,-14.49998c7.7348,0 13.99998,6.48894 13.99998,14.49998c0,8.01103 -6.26518,14.49996 -13.99998,14.49996z" id="svg_9"/>
   <path stroke="#7f7f7f" fill="#7f7f7f" opacity="undefined" d="m27.7173,54.06782c-10.41829,0 -18.85709,-8.21505 -18.85709,-18.35709c0,-10.14206 8.4388,-18.35712 18.85709,-18.35712c10.4183,0 18.85712,8.21506 18.85712,18.35712c0,10.14204 -8.43881,18.35709 -18.85712,18.35709z" id="svg_10"/>
   <line transform="rotate(1.80275 29.2887 49.6393)" stroke="#7f7f7f" fill="#7f7f7f" x1="11.8602" y1="50.2107" x2="46.71726" y2="49.06784" id="svg_11" stroke-width="10"/>
  </g>
 </g>

</svg>