<svg width="59.99999999999999" height="59.99999999999999" xmlns="http://www.w3.org/2000/svg">
 <g>
  <title>Слой 1</title>
  <line id="svg_10" y2="11.39947" x2="41.53843" y1="11.39947" x1="7.56415" stroke-opacity="0" stroke-width="3" stroke="#333333" fill="none"/>
  <path transform="rotate(-149.575 12.7979 14.8072)" stroke="#4c4c4c" id="svg_16" d="m21.9396,3.89799c-13.8514,8.23932 -15.4606,9.2347 -16.33469,9.91412c-0.89632,0.89616 -1.75188,1.07901 -1.82342,2.98547c-0.00541,0.91018 -0.35324,2.02106 0.13459,2.98685c2.67632,4.28348 2.9317,4.49519 5.74901,5.45424c2.81731,0.95904 4.54353,0.25956 5.92733,-0.23922c1.3838,-0.49878 4.79665,-3.9836 4.8258,-6.60638c0.02914,-2.62278 0.22488,1.16789 0.04388,-3.24676" opacity="undefined" stroke-width="5" fill="none"/>
  <path transform="rotate(-149.561 39.3203 26.8264)" stroke="#4c4c4c" id="svg_17" d="m54.39178,9.24138c-22.83626,13.28132 -25.4893,14.88583 -26.93036,15.98102c-1.47773,1.44456 -2.88825,1.7393 -3.0062,4.81242c-0.00892,1.46717 -0.58237,3.25784 0.2219,4.81463c4.41235,6.90473 4.83338,7.24601 9.47817,8.79193c4.64479,1.54592 7.49075,0.4184 9.77216,-0.38561c2.28143,-0.80401 7.90806,-6.42134 7.9561,-10.64913c0.04804,-4.22778 0.37076,1.88257 0.07235,-5.2336" opacity="undefined" stroke-width="5" fill="none"/>
  <path transform="rotate(-149.575 28.8235 51.9866)" stroke="#4c4c4c" id="svg_18" d="m37.9652,41.07739c-13.8514,8.23932 -15.4606,9.2347 -16.33469,9.91412c-0.89632,0.89616 -1.75187,1.07901 -1.82342,2.98548c-0.00541,0.91018 -0.35324,2.02105 0.1346,2.98684c2.67632,4.28348 2.9317,4.4952 5.74901,5.45424c2.81731,0.95904 4.54353,0.25956 5.92733,-0.23922c1.3838,-0.49878 4.79665,-3.9836 4.82579,-6.60639c0.02914,-2.62278 0.22489,1.16789 0.04389,-3.24676" opacity="undefined" stroke-width="5" fill="none"/>
  <line transform="rotate(0.924943 4.35904 34.236)" stroke="#4c4c4c" id="svg_19" y2="34.63659" x2="-30.09601" y1="33.83531" x1="38.81408" stroke-width="5" fill="none"/>
  <line id="svg_20" y2="57.07244" x2="-17.91655" y1="56.75192" x1="18.14105" stroke-width="5" stroke="#4c4c4c" fill="none"/>
 </g>

</svg>