<svg width="60" height="60" xmlns="http://www.w3.org/2000/svg" stroke="null">
 <g id="Слой_1">
  <title>Слой 1</title>
  <line id="svg_10" y2="9.64984" x2="-15.00515" y1="9.54686" x1="-15.00515" stroke="#333333" fill="none"/>
  <line id="svg_21" y2="18.49732" x2="79.83702" y1="18.49732" x1="79.92634" stroke-width="2" stroke="#191919" fill="none"/>
  <line id="svg_44" y2="40.95488" x2="84.69439" y1="40.95488" x1="84.58068" stroke-width="4" stroke="#191919" fill="none"/>
  <path transform="rotate(-0.829056 28.4998 29.9815)" stroke="#191919" id="svg_50" d="m28.69496,56.34923c-9.62596,0 -16.82147,-8.08949 -14.21476,-22.72469c2.60671,-14.6352 3.88115,-14.14054 7.10901,-19.68364l7.97075,-10.32707c2.01377,2.86096 7.50574,11.19581 9.75332,15.82994c2.24757,4.63412 1.86344,4.14369 3.48446,15.42515c1.62101,11.28146 -4.47682,21.48032 -14.10278,21.48032z" opacity="undefined" stroke-width="4" fill="none"/>
  <ellipse stroke-width="2" stroke="#191919" ry="2.25118" rx="2.31043" id="svg_56" cy="38.37701" cx="25.41921" fill="none"/>
  <ellipse stroke-width="2" stroke="#191919" ry="2.25118" rx="2.31043" id="svg_57" cy="44.64537" cx="32.32976" fill="none"/>
  <line stroke="#191919" stroke-width="2" id="svg_58" y2="36.71899" x2="33.89363" y1="47.03149" x1="23.23521" fill="none"/>
  <line id="svg_59" y2="45.82938" x2="82.60663" y1="45.7109" x1="82.36967" stroke="#191919" fill="none"/>
 </g>

</svg>