<svg width="60" height="60" xmlns="http://www.w3.org/2000/svg">

 <g>
  <title>Слой 1</title>
  <path id="svg_5" d="m11.71432,46.61888c-5.91948,0 -10.71426,-4.79478 -10.71426,-10.71426c0,-5.91948 4.79478,-10.71426 10.71426,-10.71426c5.91948,0 10.71426,4.79478 10.71426,10.71426c0,5.91948 -4.79478,10.71426 -10.71426,10.71426z" opacity="undefined" stroke="#999999" fill="#999999"/>
  <path stroke="#999999" id="svg_9" d="m44.99996,46.47603c-7.73479,0 -13.99997,-6.48894 -13.99997,-14.49996c0,-8.01104 6.26518,-14.49998 13.99997,-14.49998c7.7348,0 13.99998,6.48894 13.99998,14.49998c0,8.01103 -6.26518,14.49996 -13.99998,14.49996z" opacity="undefined" fill="#999999"/>
  <path stroke="#999999" id="svg_10" d="m27,46.47602c-10.41829,0 -18.85709,-8.21505 -18.85709,-18.35709c0,-10.14206 8.4388,-18.35712 18.85709,-18.35712c10.4183,0 18.85712,8.21506 18.85712,18.35712c0,10.14204 -8.43881,18.35709 -18.85712,18.35709z" opacity="undefined" fill="#999999"/>
  <line transform="rotate(1.80275 28.5714 42.0475)" stroke="#999999" stroke-width="10" id="svg_11" y2="41.47604" x2="45.99996" y1="42.6189" x1="11.1429" fill="none"/>
 </g>
</svg>