<svg width="60" height="60" xmlns="http://www.w3.org/2000/svg" stroke="null" style="vector-effect: non-scaling-stroke;">
 <g stroke="null">
  <title stroke="null">Слой 1</title>
  <path id="svg_35" d="m3.20381,13.88362c7.78319,0.45307 8.58821,-5.33779 14.46,-5.29583c5.87178,0.04196 8.65495,4.94589 12.43328,5.04096c3.77833,0.09507 6.22171,-5.20127 12.19057,-5.17143c5.96886,0.02984 6.91952,5.38583 14.70271,5.03794" opacity="undefined" stroke-width="4" stroke="#aad4ff" fill="none"/>
  <path id="svg_36" d="m3.20381,26.11666c7.78319,0.45308 8.58821,-5.33778 14.45999,-5.29582c5.87179,0.04196 8.65496,4.94589 12.43329,5.04096c3.77833,0.09507 6.2217,-5.20127 12.19057,-5.17143c5.96886,0.02983 6.91952,5.38583 14.7027,5.03793" opacity="undefined" stroke-width="4" stroke="#aad4ff" fill="none"/>
  <path id="svg_37" d="m3.59216,39.12641c7.78319,0.45308 8.58821,-5.33778 14.45999,-5.29582c5.87179,0.04196 8.65496,4.94589 12.43329,5.04096c3.77833,0.09507 6.2217,-5.20127 12.19057,-5.17143c5.96886,0.02983 6.91952,5.38583 14.7027,5.03793" opacity="undefined" stroke-width="4" stroke="#aad4ff" fill="none"/>
  <path id="svg_38" d="m3.39799,50.9711c7.78319,0.45308 8.58821,-5.33778 14.45999,-5.29582c5.87179,0.04196 8.65496,4.94589 12.43329,5.04096c3.77833,0.09507 6.2217,-5.20127 12.19057,-5.17143c5.96886,0.02983 6.91952,5.38583 14.7027,5.03793" opacity="undefined" stroke-width="4" stroke="#aad4ff" fill="none"/>
 </g>

</svg>